<svg xmlns="http://www.w3.org/2000/svg" viewBox="0 0 512 512" width="512" height="512">
  <rect width="512" height="512" rx="112" fill="#131313"/>
  <circle cx="128.0" cy="64.0" r="10.2" fill="#262626"/>
  <circle cx="153.6" cy="64.0" r="10.2" fill="#262626"/>
  <circle cx="179.2" cy="64.0" r="10.2" fill="#262626"/>
  <circle cx="204.8" cy="64.0" r="10.2" fill="#262626"/>
  <circle cx="230.4" cy="64.0" r="10.2" fill="#262626"/>
  <circle cx="256.0" cy="64.0" r="10.2" fill="#262626"/>
  <circle cx="281.6" cy="64.0" r="10.2" fill="#262626"/>
  <circle cx="307.2" cy="64.0" r="10.2" fill="#262626"/>
  <circle cx="332.8" cy="64.0" r="10.2" fill="#262626"/>
  <circle cx="358.4" cy="64.0" r="10.2" fill="#262626"/>
  <circle cx="384.0" cy="64.0" r="10.2" fill="#262626"/>
  <circle cx="128.0" cy="89.6" r="10.2" fill="#262626"/>
  <circle cx="153.6" cy="89.6" r="10.2" fill="#262626"/>
  <circle cx="179.2" cy="89.6" r="10.2" fill="#262626"/>
  <circle cx="204.8" cy="89.6" r="10.2" fill="#262626"/>
  <circle cx="230.4" cy="89.6" r="10.2" fill="#262626"/>
  <circle cx="256.0" cy="89.6" r="10.2" fill="#262626"/>
  <circle cx="281.6" cy="89.6" r="10.2" fill="#262626"/>
  <circle cx="307.2" cy="89.6" r="10.2" fill="#262626"/>
  <circle cx="332.8" cy="89.6" r="10.2" fill="#262626"/>
  <circle cx="358.4" cy="89.6" r="10.2" fill="#262626"/>
  <circle cx="384.0" cy="89.6" r="10.2" fill="#262626"/>
  <circle cx="128.0" cy="115.2" r="10.2" fill="#262626"/>
  <circle cx="153.6" cy="115.2" r="10.2" fill="#262626"/>
  <circle cx="179.2" cy="115.2" r="10.2" fill="#262626"/>
  <circle cx="204.8" cy="115.2" r="10.2" fill="#262626"/>
  <circle cx="230.4" cy="115.2" r="10.2" fill="#262626"/>
  <circle cx="256.0" cy="115.2" r="10.2" fill="#262626"/>
  <circle cx="281.6" cy="115.2" r="10.2" fill="#262626"/>
  <circle cx="307.2" cy="115.2" r="10.2" fill="#262626"/>
  <circle cx="332.8" cy="115.2" r="10.2" fill="#262626"/>
  <circle cx="358.4" cy="115.2" r="10.2" fill="#262626"/>
  <circle cx="384.0" cy="115.2" r="10.2" fill="#262626"/>
  <circle cx="128.0" cy="140.8" r="10.2" fill="#262626"/>
  <circle cx="153.6" cy="140.8" r="10.2" fill="#262626"/>
  <circle cx="179.2" cy="140.8" r="10.2" fill="#262626"/>
  <circle cx="204.8" cy="140.8" r="10.2" fill="#262626"/>
  <circle cx="230.4" cy="140.8" r="10.2" fill="#262626"/>
  <circle cx="256.0" cy="140.8" r="10.2" fill="#262626"/>
  <circle cx="281.6" cy="140.8" r="10.2" fill="#262626"/>
  <circle cx="307.2" cy="140.8" r="10.2" fill="#262626"/>
  <circle cx="332.8" cy="140.8" r="10.2" fill="#262626"/>
  <circle cx="358.4" cy="140.8" r="10.2" fill="#262626"/>
  <circle cx="384.0" cy="140.8" r="10.2" fill="#262626"/>
  <circle cx="128.0" cy="166.4" r="10.2" fill="#262626"/>
  <circle cx="153.6" cy="166.4" r="10.2" fill="#262626"/>
  <circle cx="179.2" cy="166.4" r="10.2" fill="#262626"/>
  <circle cx="204.8" cy="166.4" r="10.2" fill="#262626"/>
  <circle cx="230.4" cy="166.4" r="10.2" fill="#262626"/>
  <circle cx="256.0" cy="166.4" r="10.2" fill="#262626"/>
  <circle cx="281.6" cy="166.4" r="10.2" fill="#262626"/>
  <circle cx="307.2" cy="166.4" r="10.2" fill="#262626"/>
  <circle cx="332.8" cy="166.4" r="10.2" fill="#262626"/>
  <circle cx="358.4" cy="166.4" r="10.2" fill="#262626"/>
  <circle cx="384.0" cy="166.4" r="10.2" fill="#262626"/>
  <circle cx="128.0" cy="192.0" r="10.2" fill="#262626"/>
  <circle cx="153.6" cy="192.0" r="10.2" fill="#262626"/>
  <circle cx="179.2" cy="192.0" r="10.2" fill="#262626"/>
  <circle cx="204.8" cy="192.0" r="10.2" fill="#262626"/>
  <circle cx="230.4" cy="192.0" r="10.2" fill="#262626"/>
  <circle cx="256.0" cy="192.0" r="10.2" fill="#262626"/>
  <circle cx="281.6" cy="192.0" r="10.2" fill="#262626"/>
  <circle cx="307.2" cy="192.0" r="10.2" fill="#262626"/>
  <circle cx="332.8" cy="192.0" r="10.2" fill="#262626"/>
  <circle cx="358.4" cy="192.0" r="10.2" fill="#262626"/>
  <circle cx="384.0" cy="192.0" r="10.2" fill="#262626"/>
  <circle cx="128.0" cy="217.6" r="10.2" fill="#262626"/>
  <circle cx="153.6" cy="217.6" r="10.2" fill="#262626"/>
  <circle cx="179.2" cy="217.6" r="10.2" fill="#262626"/>
  <circle cx="204.8" cy="217.6" r="10.2" fill="#262626"/>
  <circle cx="230.4" cy="217.6" r="10.2" fill="#262626"/>
  <circle cx="256.0" cy="217.6" r="10.2" fill="#262626"/>
  <circle cx="281.6" cy="217.6" r="10.2" fill="#262626"/>
  <circle cx="307.2" cy="217.6" r="10.2" fill="#262626"/>
  <circle cx="332.8" cy="217.6" r="10.2" fill="#262626"/>
  <circle cx="358.4" cy="217.6" r="10.2" fill="#262626"/>
  <circle cx="384.0" cy="217.6" r="10.2" fill="#262626"/>
  <circle cx="128.0" cy="243.2" r="10.2" fill="#262626"/>
  <circle cx="153.6" cy="243.2" r="10.2" fill="#262626"/>
  <circle cx="179.2" cy="243.2" r="10.2" fill="#262626"/>
  <circle cx="204.8" cy="243.2" r="10.2" fill="#262626"/>
  <circle cx="230.4" cy="243.2" r="10.2" fill="#262626"/>
  <circle cx="256.0" cy="243.2" r="10.2" fill="#262626"/>
  <circle cx="281.6" cy="243.2" r="10.2" fill="#262626"/>
  <circle cx="307.2" cy="243.2" r="10.2" fill="#262626"/>
  <circle cx="332.8" cy="243.2" r="10.2" fill="#262626"/>
  <circle cx="358.4" cy="243.2" r="10.2" fill="#262626"/>
  <circle cx="384.0" cy="243.2" r="10.2" fill="#262626"/>
  <circle cx="128.0" cy="268.8" r="10.2" fill="#262626"/>
  <circle cx="153.6" cy="268.8" r="10.2" fill="#262626"/>
  <circle cx="179.2" cy="268.8" r="10.2" fill="#262626"/>
  <circle cx="204.8" cy="268.8" r="10.2" fill="#262626"/>
  <circle cx="230.4" cy="268.8" r="10.2" fill="#262626"/>
  <circle cx="256.0" cy="268.8" r="10.2" fill="#262626"/>
  <circle cx="281.6" cy="268.8" r="10.2" fill="#262626"/>
  <circle cx="307.2" cy="268.8" r="10.2" fill="#262626"/>
  <circle cx="332.8" cy="268.8" r="10.2" fill="#262626"/>
  <circle cx="358.4" cy="268.8" r="10.2" fill="#262626"/>
  <circle cx="384.0" cy="268.8" r="10.2" fill="#262626"/>
  <circle cx="128.0" cy="294.4" r="10.2" fill="#262626"/>
  <circle cx="153.6" cy="294.4" r="10.2" fill="#262626"/>
  <circle cx="179.2" cy="294.4" r="10.2" fill="#262626"/>
  <circle cx="204.8" cy="294.4" r="10.2" fill="#262626"/>
  <circle cx="230.4" cy="294.4" r="10.2" fill="#262626"/>
  <circle cx="256.0" cy="294.4" r="10.2" fill="#262626"/>
  <circle cx="281.6" cy="294.4" r="10.2" fill="#262626"/>
  <circle cx="307.2" cy="294.4" r="10.2" fill="#262626"/>
  <circle cx="332.8" cy="294.4" r="10.2" fill="#262626"/>
  <circle cx="358.4" cy="294.4" r="10.2" fill="#262626"/>
  <circle cx="384.0" cy="294.4" r="10.2" fill="#262626"/>
  <circle cx="128.0" cy="320.0" r="10.2" fill="#262626"/>
  <circle cx="153.6" cy="320.0" r="10.2" fill="#262626"/>
  <circle cx="179.2" cy="320.0" r="10.2" fill="#262626"/>
  <circle cx="204.8" cy="320.0" r="10.2" fill="#262626"/>
  <circle cx="230.4" cy="320.0" r="10.2" fill="#262626"/>
  <circle cx="256.0" cy="320.0" r="10.2" fill="#262626"/>
  <circle cx="281.6" cy="320.0" r="10.2" fill="#262626"/>
  <circle cx="307.2" cy="320.0" r="10.2" fill="#262626"/>
  <circle cx="332.8" cy="320.0" r="10.2" fill="#262626"/>
  <circle cx="358.4" cy="320.0" r="10.2" fill="#262626"/>
  <circle cx="384.0" cy="320.0" r="10.2" fill="#262626"/>
  <circle cx="128.0" cy="345.6" r="10.2" fill="#262626"/>
  <circle cx="153.6" cy="345.6" r="10.2" fill="#262626"/>
  <circle cx="179.2" cy="345.6" r="10.2" fill="#262626"/>
  <circle cx="204.8" cy="345.6" r="10.2" fill="#262626"/>
  <circle cx="230.4" cy="345.6" r="10.2" fill="#262626"/>
  <circle cx="256.0" cy="345.6" r="10.2" fill="#262626"/>
  <circle cx="281.6" cy="345.6" r="10.2" fill="#262626"/>
  <circle cx="307.2" cy="345.6" r="10.2" fill="#262626"/>
  <circle cx="332.8" cy="345.6" r="10.2" fill="#262626"/>
  <circle cx="358.4" cy="345.6" r="10.2" fill="#262626"/>
  <circle cx="384.0" cy="345.6" r="10.2" fill="#262626"/>
  <circle cx="128.0" cy="371.2" r="10.2" fill="#262626"/>
  <circle cx="153.6" cy="371.2" r="10.2" fill="#262626"/>
  <circle cx="179.2" cy="371.2" r="10.2" fill="#262626"/>
  <circle cx="204.8" cy="371.2" r="10.2" fill="#262626"/>
  <circle cx="230.4" cy="371.2" r="10.2" fill="#262626"/>
  <circle cx="256.0" cy="371.2" r="10.2" fill="#262626"/>
  <circle cx="281.6" cy="371.2" r="10.2" fill="#262626"/>
  <circle cx="307.2" cy="371.2" r="10.2" fill="#262626"/>
  <circle cx="332.8" cy="371.2" r="10.2" fill="#262626"/>
  <circle cx="358.4" cy="371.2" r="10.2" fill="#262626"/>
  <circle cx="384.0" cy="371.2" r="10.2" fill="#262626"/>
  <circle cx="128.0" cy="396.8" r="10.2" fill="#262626"/>
  <circle cx="153.6" cy="396.8" r="10.2" fill="#262626"/>
  <circle cx="179.2" cy="396.8" r="10.2" fill="#262626"/>
  <circle cx="204.8" cy="396.8" r="10.2" fill="#262626"/>
  <circle cx="230.4" cy="396.8" r="10.2" fill="#262626"/>
  <circle cx="256.0" cy="396.8" r="10.2" fill="#262626"/>
  <circle cx="281.6" cy="396.8" r="10.2" fill="#262626"/>
  <circle cx="307.2" cy="396.8" r="10.2" fill="#262626"/>
  <circle cx="332.8" cy="396.8" r="10.2" fill="#262626"/>
  <circle cx="358.4" cy="396.8" r="10.2" fill="#262626"/>
  <circle cx="384.0" cy="396.8" r="10.2" fill="#262626"/>
  <circle cx="128.0" cy="422.4" r="10.2" fill="#262626"/>
  <circle cx="153.6" cy="422.4" r="10.2" fill="#262626"/>
  <circle cx="179.2" cy="422.4" r="10.2" fill="#262626"/>
  <circle cx="204.8" cy="422.4" r="10.2" fill="#262626"/>
  <circle cx="230.4" cy="422.4" r="10.2" fill="#262626"/>
  <circle cx="256.0" cy="422.4" r="10.2" fill="#262626"/>
  <circle cx="281.6" cy="422.4" r="10.2" fill="#262626"/>
  <circle cx="307.2" cy="422.4" r="10.2" fill="#262626"/>
  <circle cx="332.8" cy="422.4" r="10.2" fill="#262626"/>
  <circle cx="358.4" cy="422.4" r="10.2" fill="#262626"/>
  <circle cx="384.0" cy="422.4" r="10.2" fill="#262626"/>
  <circle cx="128.0" cy="448.0" r="10.2" fill="#262626"/>
  <circle cx="153.6" cy="448.0" r="10.2" fill="#262626"/>
  <circle cx="179.2" cy="448.0" r="10.2" fill="#262626"/>
  <circle cx="204.8" cy="448.0" r="10.2" fill="#262626"/>
  <circle cx="230.4" cy="448.0" r="10.2" fill="#262626"/>
  <circle cx="256.0" cy="448.0" r="10.2" fill="#262626"/>
  <circle cx="281.6" cy="448.0" r="10.2" fill="#262626"/>
  <circle cx="307.2" cy="448.0" r="10.2" fill="#262626"/>
  <circle cx="332.8" cy="448.0" r="10.2" fill="#262626"/>
  <circle cx="358.4" cy="448.0" r="10.2" fill="#262626"/>
  <circle cx="384.0" cy="448.0" r="10.2" fill="#262626"/>
  <circle cx="179.2" cy="64.0" r="10.2" fill="#f2f2f2"/>
  <circle cx="153.6" cy="89.6" r="10.2" fill="#f2f2f2"/>
  <circle cx="179.2" cy="89.6" r="10.2" fill="#f2f2f2"/>
  <circle cx="179.2" cy="115.2" r="10.2" fill="#f2f2f2"/>
  <circle cx="179.2" cy="140.8" r="10.2" fill="#f2f2f2"/>
  <circle cx="179.2" cy="166.4" r="10.2" fill="#f2f2f2"/>
  <circle cx="179.2" cy="192.0" r="10.2" fill="#f2f2f2"/>
  <circle cx="153.6" cy="217.6" r="10.2" fill="#f2f2f2"/>
  <circle cx="179.2" cy="217.6" r="10.2" fill="#f2f2f2"/>
  <circle cx="204.8" cy="217.6" r="10.2" fill="#f2f2f2"/>
  <circle cx="307.2" cy="64.0" r="10.2" fill="#f2f2f2"/>
  <circle cx="332.8" cy="64.0" r="10.2" fill="#f2f2f2"/>
  <circle cx="358.4" cy="64.0" r="10.2" fill="#f2f2f2"/>
  <circle cx="281.6" cy="89.6" r="10.2" fill="#f2f2f2"/>
  <circle cx="384.0" cy="89.6" r="10.2" fill="#f2f2f2"/>
  <circle cx="281.6" cy="115.2" r="10.2" fill="#f2f2f2"/>
  <circle cx="358.4" cy="115.2" r="10.2" fill="#f2f2f2"/>
  <circle cx="384.0" cy="115.2" r="10.2" fill="#f2f2f2"/>
  <circle cx="281.6" cy="140.8" r="10.2" fill="#f2f2f2"/>
  <circle cx="332.8" cy="140.8" r="10.2" fill="#f2f2f2"/>
  <circle cx="384.0" cy="140.8" r="10.2" fill="#f2f2f2"/>
  <circle cx="281.6" cy="166.4" r="10.2" fill="#f2f2f2"/>
  <circle cx="307.2" cy="166.4" r="10.2" fill="#f2f2f2"/>
  <circle cx="384.0" cy="166.4" r="10.2" fill="#f2f2f2"/>
  <circle cx="281.6" cy="192.0" r="10.2" fill="#f2f2f2"/>
  <circle cx="384.0" cy="192.0" r="10.2" fill="#f2f2f2"/>
  <circle cx="307.2" cy="217.6" r="10.2" fill="#f2f2f2"/>
  <circle cx="332.8" cy="217.6" r="10.2" fill="#f2f2f2"/>
  <circle cx="358.4" cy="217.6" r="10.2" fill="#f2f2f2"/>
  <circle cx="153.6" cy="294.4" r="10.2" fill="#ffc700"/>
  <circle cx="179.2" cy="294.4" r="10.2" fill="#ffc700"/>
  <circle cx="204.8" cy="294.4" r="10.2" fill="#ffc700"/>
  <circle cx="128.0" cy="320.0" r="10.2" fill="#ffc700"/>
  <circle cx="230.4" cy="320.0" r="10.2" fill="#ffc700"/>
  <circle cx="128.0" cy="345.6" r="10.2" fill="#ffc700"/>
  <circle cx="204.8" cy="345.6" r="10.2" fill="#ffc700"/>
  <circle cx="230.4" cy="345.6" r="10.2" fill="#ffc700"/>
  <circle cx="128.0" cy="371.2" r="10.2" fill="#ffc700"/>
  <circle cx="179.2" cy="371.2" r="10.2" fill="#ffc700"/>
  <circle cx="230.4" cy="371.2" r="10.2" fill="#ffc700"/>
  <circle cx="128.0" cy="396.8" r="10.2" fill="#ffc700"/>
  <circle cx="153.6" cy="396.8" r="10.2" fill="#ffc700"/>
  <circle cx="230.4" cy="396.8" r="10.2" fill="#ffc700"/>
  <circle cx="128.0" cy="422.4" r="10.2" fill="#ffc700"/>
  <circle cx="230.4" cy="422.4" r="10.2" fill="#ffc700"/>
  <circle cx="153.6" cy="448.0" r="10.2" fill="#ffc700"/>
  <circle cx="179.2" cy="448.0" r="10.2" fill="#ffc700"/>
  <circle cx="204.8" cy="448.0" r="10.2" fill="#ffc700"/>
  <circle cx="307.2" cy="294.4" r="10.2" fill="#ffc700"/>
  <circle cx="332.8" cy="294.4" r="10.2" fill="#ffc700"/>
  <circle cx="358.4" cy="294.4" r="10.2" fill="#ffc700"/>
  <circle cx="281.6" cy="320.0" r="10.2" fill="#ffc700"/>
  <circle cx="384.0" cy="320.0" r="10.2" fill="#ffc700"/>
  <circle cx="281.6" cy="345.6" r="10.2" fill="#ffc700"/>
  <circle cx="384.0" cy="345.6" r="10.2" fill="#ffc700"/>
  <circle cx="307.2" cy="371.2" r="10.2" fill="#ffc700"/>
  <circle cx="332.8" cy="371.2" r="10.2" fill="#ffc700"/>
  <circle cx="358.4" cy="371.2" r="10.2" fill="#ffc700"/>
  <circle cx="384.0" cy="371.2" r="10.2" fill="#ffc700"/>
  <circle cx="384.0" cy="396.8" r="10.2" fill="#ffc700"/>
  <circle cx="358.4" cy="422.4" r="10.2" fill="#ffc700"/>
  <circle cx="307.2" cy="448.0" r="10.2" fill="#ffc700"/>
  <circle cx="332.8" cy="448.0" r="10.2" fill="#ffc700"/>
</svg>